<?xml version="1.0" encoding="UTF-8"?>
<svg width="67px" height="32px" viewBox="0 0 67 32" version="1.1" xmlns="http://www.w3.org/2000/svg" xmlns:xlink="http://www.w3.org/1999/xlink">
    <!-- Generator: Sketch 43.2 (39069) - http://www.bohemiancoding.com/sketch -->
    <title>Logo/regular</title>
    <desc>Created with Sketch.</desc>
    <defs></defs>
    <g id="Symbols" stroke="none" stroke-width="1" fill="none" fill-rule="evenodd">
        <g id="Logo/regular" fill-rule="nonzero">
            <path d="M4.3473981,27.2144 C4.3473981,28.3115429 3.45787429,29.2010667 2.36104889,29.2010667 C1.26390603,29.2010667 0.374382222,28.3115429 0.374382222,27.2144 C0.374382222,26.1178921 1.26390603,25.2283683 2.36104889,25.2283683 C3.45787429,25.2283683 4.3473981,26.1178921 4.3473981,27.2144" id="path4540" fill="#DD0031"></path>
            <path d="M65.7792737,27.2144 C65.7792737,26.1178921 64.8897498,25.2283683 63.792607,25.2283683 C62.6954641,25.2283683 61.8062578,26.1178921 61.8062578,27.2144 C61.8062578,28.3115429 62.6954641,29.2010667 63.792607,29.2010667 C64.8897498,29.2010667 65.7792737,28.3115429 65.7792737,27.2144" id="path4544" fill="#DD0031"></path>
            <path d="M9.3467327,27.1656635 C9.3467327,26.3802667 8.80927238,25.8843937 8.14800254,25.8843937 C7.46609778,25.8843937 6.92863746,26.3802667 6.92863746,27.1656635 C6.92863746,27.961219 7.43498667,28.4574222 8.14800254,28.4574222 C8.85085968,28.4574222 9.3467327,27.9510603 9.3467327,27.1656635 L9.3467327,27.1656635 Z M6.78387556,29.811073 C6.87689143,30.3691683 7.32133587,30.7720127 7.97244698,30.7720127 C8.84038349,30.7720127 9.32609778,30.3380571 9.32609778,29.3564698 L9.32609778,28.9844063 C9.11943111,29.3148698 8.64419302,29.6355048 7.91022476,29.6355048 C6.55657397,29.6355048 5.54387556,28.5916952 5.54387556,27.1656635 C5.54387556,25.8225016 6.51530413,24.6856635 7.91022476,24.6856635 C8.71657397,24.6856635 9.18133587,25.0371048 9.35720889,25.3780571 L9.35720889,24.7783619 L10.6797486,24.7783619 L10.6797486,29.3148698 C10.6797486,30.7101206 9.92546286,31.9812317 8.01371683,31.9812317 C6.61879619,31.9812317 5.68863746,31.1132952 5.54387556,30.1418667 L6.78387556,29.811073 L6.78387556,29.811073 Z" id="path4548" fill="#001F5B"></path>
            <path d="M15.1745422,26.1426794 C15.0196216,26.1115683 14.8853359,26.1011048 14.7612089,26.1011048 C14.0586692,26.1011048 13.4488279,26.4423619 13.4488279,27.5376 L13.4488279,29.8626794 L12.0745422,29.8626794 L12.0745422,24.7785651 L13.4075581,24.7785651 L13.4075581,25.5328508 C13.7173994,24.8611048 14.4202565,24.7372952 14.8542248,24.7372952 C14.9678756,24.7372952 15.0713676,24.747454 15.1745422,24.7578667 L15.1745422,26.1426286 L15.1745422,26.1426794 Z" id="path4552" fill="#001F5B"></path>
            <path d="M19.4215263,29.3149714 C19.1424787,29.790527 18.5535898,29.9972063 18.0161295,29.9972063 C16.7862883,29.9972063 16.0837486,29.0978286 16.0837486,27.992127 L16.0837486,24.7784635 L17.4580343,24.7784635 L17.4580343,27.7133968 C17.4580343,28.2816508 17.7475581,28.7365587 18.388193,28.7365587 C18.9977168,28.7365587 19.3491454,28.3229206 19.3491454,27.734019 L19.3491454,24.7784635 L20.7234311,24.7784635 L20.7234311,28.9429079 C20.7234311,29.335619 20.7545422,29.6870349 20.7751771,29.8626032 L19.4627962,29.8626032 C19.4421486,29.7594159 19.4215263,29.5216508 19.4215263,29.3149714" id="path4556" fill="#001F5B"></path>
            <path d="M24.8153981,25.8946286 C24.1128584,25.8946286 23.544287,26.4216127 23.544287,27.3206603 C23.544287,28.2197079 24.1128584,28.7571556 24.8153981,28.7571556 C25.5179378,28.7571556 26.076033,28.2298667 26.076033,27.3206603 C26.076033,26.4216127 25.5179378,25.8946286 24.8153981,25.8946286 L24.8153981,25.8946286 Z M22.1906362,31.8260571 L22.1906362,24.7784381 L23.5236521,24.7784381 L23.5236521,25.3987556 C23.7509537,25.0060444 24.3195251,24.6647873 25.0839695,24.6647873 C26.5722235,24.6647873 27.4300013,25.8016 27.4300013,27.3101714 C27.4300013,28.8501841 26.4687314,29.9866921 25.032541,29.9866921 C24.3296838,29.9866921 23.8131759,29.7076317 23.5649219,29.3666794 L23.5649219,31.8260571 L22.1906362,31.8260571 Z" id="path4560" fill="#001F5B"></path>
            <path d="M31.1393981,25.8946286 C30.4368584,25.8946286 29.868287,26.4216127 29.868287,27.3206603 C29.868287,28.2197079 30.4368584,28.7571556 31.1393981,28.7571556 C31.8422552,28.7571556 32.400033,28.2298667 32.400033,27.3206603 C32.400033,26.4216127 31.8422552,25.8946286 31.1393981,25.8946286 L31.1393981,25.8946286 Z M28.5146362,31.8260571 L28.5146362,24.7784381 L29.8476521,24.7784381 L29.8476521,25.3987556 C30.0749537,25.0060444 30.6435251,24.6647873 31.4079695,24.6647873 C32.8962235,24.6647873 33.7540013,25.8016 33.7540013,27.3101714 C33.7540013,28.8501841 32.7927314,29.9866921 31.356541,29.9866921 C30.6536838,29.9866921 30.1371759,29.7076317 29.8889219,29.3666794 L29.8889219,31.8260571 L28.5146362,31.8260571 Z" id="path4564" fill="#001F5B"></path>
            <path d="M38.4141283,27.3206349 C38.4141283,26.3596698 37.7941283,25.8739556 37.1223822,25.8739556 C36.4509537,25.8739556 35.8306362,26.3596698 35.8306362,27.3206349 C35.8306362,28.2714159 36.4509537,28.7672889 37.1223822,28.7672889 C37.7941283,28.7672889 38.4141283,28.2815746 38.4141283,27.3206349 M39.788414,27.3206349 C39.788414,28.8809397 38.6414298,30.0177778 37.1223822,30.0177778 C35.6033346,30.0177778 34.4563505,28.8809397 34.4563505,27.3206349 C34.4563505,25.7498413 35.6033346,24.6234921 37.1223822,24.6234921 C38.6414298,24.6234921 39.788414,25.7498413 39.788414,27.3206349" id="path4568" fill="#001F5B"></path>
            <path d="M44.4177168,27.3206349 C44.4177168,28.2403048 45.0170819,28.7571302 45.7196216,28.7571302 C46.4224787,28.7571302 46.7735898,28.2920635 46.8875581,27.8993524 L48.096447,28.302527 C47.8691454,29.1498413 47.0732724,30.0177778 45.7196216,30.0177778 C44.2212089,30.0177778 43.0431137,28.8809397 43.0431137,27.3206349 C43.0431137,25.7498413 44.200574,24.6234921 45.6783517,24.6234921 C47.0631137,24.6234921 47.8485105,25.4812698 48.0653359,26.3390476 L46.8358121,26.752381 C46.7116851,26.3285587 46.3913676,25.8946032 45.7094629,25.8946032 C45.0066057,25.8946032 44.4177168,26.4009397 44.4177168,27.3206349" id="path4572" fill="#001F5B"></path>
            <path d="M51.3203835,28.7570286 C52.0232406,28.7570286 52.5708597,28.219581 52.5708597,27.2998857 C52.5708597,26.3906794 52.0232406,25.8843429 51.3203835,25.8843429 C50.6178438,25.8843429 50.0597486,26.4008381 50.0597486,27.3103746 C50.0597486,28.219581 50.5968914,28.7570286 51.3203835,28.7570286 L51.3203835,28.7570286 Z M53.9038756,28.9430603 C53.9038756,29.2840127 53.9245232,29.6560762 53.9451454,29.8627556 L52.6327644,29.8627556 C52.6121168,29.7595683 52.5810184,29.5113143 52.5810184,29.273854 C52.3537168,29.6767238 51.8372089,29.9868698 51.1549867,29.9868698 C49.70832,29.9868698 48.6749867,28.8500571 48.6749867,27.3103746 C48.6749867,25.8224254 49.6775263,24.6545016 51.1137168,24.6545016 C51.9921295,24.6545016 52.4054629,25.0164063 52.5499073,25.2849778 L52.5499073,22.3811556 L53.9038756,22.3811556 L53.9038756,28.9430603 Z" id="path4576" fill="#001F5B"></path>
            <path d="M58.0162235,25.8946286 C57.3136838,25.8946286 56.7451124,26.4216127 56.7451124,27.3206603 C56.7451124,28.2197079 57.3136838,28.7571556 58.0162235,28.7571556 C58.7190806,28.7571556 59.2768584,28.2298667 59.2768584,27.3206603 C59.2768584,26.4216127 58.7190806,25.8946286 58.0162235,25.8946286 L58.0162235,25.8946286 Z M55.3914616,31.8260571 L55.3914616,24.7784381 L56.7244775,24.7784381 L56.7244775,25.3987556 C56.951779,25.0060444 57.5203505,24.6647873 58.2847949,24.6647873 C59.7730489,24.6647873 60.6308267,25.8016 60.6308267,27.3101714 C60.6308267,28.8501841 59.6695568,29.9866921 58.2333663,29.9866921 C57.5305092,29.9866921 57.0140013,29.7076317 56.7657473,29.3666794 L56.7657473,31.8260571 L55.3914616,31.8260571 Z" id="path4580" fill="#001F5B"></path>
            <path d="M3.75451175,10.8858413 C3.84848,12.1055238 4.75546413,13.2315429 6.56943238,13.2315429 C7.94562286,13.2315429 8.60244825,12.5125079 8.60244825,11.6991746 C8.60244825,11.0109206 8.1332419,10.4480508 6.94467048,10.1978921 L4.91197206,9.72868571 C1.94054349,9.07187302 0.595464127,7.28901587 0.595464127,5.13092063 C0.595464127,2.37853968 3.03514667,0.0953650794 6.35038476,0.0953650794 C10.7294324,0.0953650794 12.1992737,2.87885714 12.3868927,4.53663492 L8.91514667,5.31852698 C8.7900673,4.41155556 8.1332419,3.2544 6.38181333,3.2544 C5.28721016,3.2544 4.41133714,3.9112381 4.41133714,4.78679365 C4.41133714,5.5375746 4.97419429,6.00678095 5.81863873,6.16297143 L8.00816254,6.63217778 C11.0421308,7.25790476 12.5745117,9.10298413 12.5745117,11.3550476 C12.5745117,13.8572698 10.6354641,16.4217143 6.60054349,16.4217143 C1.9716546,16.4217143 0.376733968,13.4194794 0.189114921,11.6677333 L3.75451175,10.8858413 L3.75451175,10.8858413 Z" id="path4584" fill="#DD0031"></path>
            <path d="M22.7397486,12.7938286 C24.8978438,12.7938286 26.524193,11.0109714 26.524193,8.19606349 C26.524193,5.38113016 24.9289549,3.72335238 22.7397486,3.72335238 C20.5191137,3.72335238 18.8927644,5.38113016 18.8927644,8.19606349 C18.8927644,10.9795556 20.4876851,12.7938286 22.7397486,12.7938286 L22.7397486,12.7938286 Z M26.5556216,13.8573206 C25.8984787,15.3271619 24.3035581,16.390654 22.2394311,16.390654 C17.704193,16.390654 14.7016533,12.856381 14.7016533,8.19606349 C14.7016533,3.69224127 17.6416533,0.126526984 22.1140343,0.126526984 C24.8664152,0.126526984 26.1489549,1.59669841 26.524193,2.47255873 L26.524193,0.564622222 L30.5587962,0.564622222 L30.5587962,13.1690667 C30.5587962,14.5452698 30.6527644,15.6087619 30.6838756,15.9525587 L26.7118121,15.9525587 C26.6492724,15.6087619 26.5556216,14.7954286 26.5556216,14.0449524 L26.5556216,13.8573206 L26.5556216,13.8573206 Z" id="path4588" fill="#DD0031"></path>
            <path d="M37.9094629,8.25866667 C37.9094629,11.0421587 39.7234311,12.6059683 41.8504152,12.6059683 C43.9770819,12.6059683 45.040574,11.198654 45.384701,10.0100825 L49.044066,11.2297651 C48.3558121,13.7945397 45.9475581,16.4218413 41.8504152,16.4218413 C37.3151771,16.4218413 33.7497803,12.9815111 33.7497803,8.25866667 C33.7497803,3.50468571 37.2526375,0.0954920635 41.7253359,0.0954920635 C45.916447,0.0954920635 48.2932724,2.69135238 48.9500978,5.2872381 L45.228193,6.53833651 C44.8529549,5.25612698 43.8834311,3.94247619 41.8189867,3.94247619 C39.69232,3.94247619 37.9094629,5.47484444 37.9094629,8.25866667" id="path4592" fill="#DD0031"></path>
            <path d="M61.8675886,6.5071746 C61.8050489,4.97447619 60.8040965,3.47319365 58.4272711,3.47319365 C56.2691759,3.47319365 55.0806044,5.09955556 54.9866362,6.5071746 L61.8675886,6.5071746 Z M65.7456838,11.5427302 C64.9640965,14.2011429 62.524414,16.4217651 58.7399695,16.4217651 C54.5174298,16.4217651 50.7955251,13.3881143 50.7955251,8.19606349 C50.7955251,3.2855873 54.423779,0.095415873 58.364414,0.095415873 C63.1186997,0.095415873 65.9647314,3.12906667 65.9647314,8.07098413 C65.9647314,8.66526984 65.9021917,9.29066667 65.9021917,9.35319365 L54.8926679,9.35319365 C54.9866362,11.3862095 56.7069537,12.856381 58.7710806,12.856381 C60.7104457,12.856381 61.7736203,11.8868571 62.2742552,10.510654 L65.7456838,11.5427302 L65.7456838,11.5427302 Z" id="path4596" fill="#DD0031"></path>
        </g>
    </g>
</svg>