<?xml version="1.0" encoding="UTF-8"?>
<svg width="71px" height="34px" viewBox="0 0 71 34" version="1.1" xmlns="http://www.w3.org/2000/svg" xmlns:xlink="http://www.w3.org/1999/xlink">
    <!-- Generator: Sketch 44.1 (41455) - http://www.bohemiancoding.com/sketch -->
    <title>Logo</title>
    <desc>Created with Sketch.</desc>
    <defs></defs>
    <g id="3---Factoring" stroke="none" stroke-width="1" fill="none" fill-rule="evenodd">
        <g id="SACE-Factoring-stepBA2" transform="translate(-32.000000, -83.000000)" fill-rule="nonzero" fill="#FFFFFF">
            <g id="Logo/white" transform="translate(32.000000, 83.000000)">
                <path d="M4.67183079,28.9153 C4.67183079,30.0810143 3.71592461,31.0261333 2.53724657,31.0261333 C1.35822738,31.0261333 0.402321194,30.0810143 0.402321194,28.9153 C0.402321194,27.7502603 1.35822738,26.8051413 2.53724657,26.8051413 C3.71592461,26.8051413 4.67183079,27.7502603 4.67183079,28.9153" id="path4540"></path>
                <path d="M70.6881747,28.9153 C70.6881747,27.7502603 69.7322685,26.8051413 68.5532493,26.8051413 C67.3742301,26.8051413 66.4186651,27.7502603 66.4186651,28.9153 C66.4186651,30.0810143 67.3742301,31.0261333 68.5532493,31.0261333 C69.7322685,31.0261333 70.6881747,30.0810143 70.6881747,28.9153" id="path4544"></path>
                <path d="M10.0442501,28.8635175 C10.0442501,28.0290333 9.46668077,27.5021683 8.75606243,27.5021683 C8.02326925,27.5021683 7.44569996,28.0290333 7.44569996,28.8635175 C7.44569996,29.7087952 7.98983642,30.2360111 8.75606243,30.2360111 C9.5113716,30.2360111 10.0442501,29.6980016 10.0442501,28.8635175 L10.0442501,28.8635175 Z M7.29013493,31.6742651 C7.39009228,32.2672413 7.86770422,32.6952635 8.56740571,32.6952635 C9.5001136,32.6952635 10.0220752,32.2341857 10.0220752,31.1912492 L10.0220752,30.7959317 C9.79998567,31.1470492 9.28928205,31.4877238 8.50054004,31.4877238 C7.04587053,31.4877238 5.95759761,30.3786762 5.95759761,28.8635175 C5.95759761,27.4364079 7.00152085,26.2285175 8.50054004,26.2285175 C9.36706456,26.2285175 9.86651019,26.6019238 10.0555081,26.9641857 L10.0555081,26.3270095 L11.4767447,26.3270095 L11.4767447,31.1470492 C11.4767447,32.6295032 10.666169,33.9800587 8.61175539,33.9800587 C7.1127362,33.9800587 6.11316264,33.0578762 5.95759761,32.0257333 L7.29013493,31.6742651 L7.29013493,31.6742651 Z" id="path4548"></path>
                <path d="M16.3069707,27.7765968 C16.1404889,27.7435413 15.9961818,27.7324238 15.8627916,27.7324238 C15.1078236,27.7324238 14.4524718,28.0950095 14.4524718,29.2587 L14.4524718,31.7290968 L12.9756275,31.7290968 L12.9756275,26.3272254 L14.4081221,26.3272254 L14.4081221,27.128654 C14.7410859,26.4149238 15.4963951,26.2833762 15.962749,26.2833762 C16.0848812,26.2833762 16.1960965,26.2941698 16.3069707,26.3052333 L16.3069707,27.7765429 L16.3069707,27.7765968 Z" id="path4552"></path>
                <path d="M20.870894,31.1471571 C20.5710219,31.6524349 19.9381861,31.8720317 19.3606168,31.8720317 C18.0389963,31.8720317 17.2840283,30.9164429 17.2840283,29.7416349 L17.2840283,26.3271175 L18.7608727,26.3271175 L18.7608727,29.4454841 C18.7608727,30.049254 19.0720027,30.5325937 19.7604462,30.5325937 C20.4154569,30.5325937 20.7931115,30.0931032 20.7931115,29.4673952 L20.7931115,26.3271175 L22.2699558,26.3271175 L22.2699558,30.7518397 C22.2699558,31.1690952 22.3033887,31.5424746 22.3255635,31.7290159 L20.9152437,31.7290159 C20.8930552,31.6193794 20.870894,31.366754 20.870894,31.1471571" id="path4556"></path>
                <path d="M26.6672935,27.5130429 C25.9123255,27.5130429 25.3013233,28.0729635 25.3013233,29.0282016 C25.3013233,29.9834397 25.9123255,30.5544778 26.6672935,30.5544778 C27.4222615,30.5544778 28.0220056,29.9942333 28.0220056,29.0282016 C28.0220056,28.0729635 27.4222615,27.5130429 26.6672935,27.5130429 L26.6672935,27.5130429 Z M23.8466538,33.8151857 L23.8466538,26.3270905 L25.2791485,26.3270905 L25.2791485,26.9861778 C25.5234129,26.5689222 26.134415,26.2063365 26.9559075,26.2063365 C28.5552252,26.2063365 29.4770163,27.4142 29.4770163,29.0170571 C29.4770163,30.6533206 28.4440099,31.8608603 26.900641,31.8608603 C26.1453319,31.8608603 25.5902786,31.5643587 25.3234982,31.2020968 L25.3234982,33.8151857 L23.8466538,33.8151857 Z" id="path4560"></path>
                <path d="M33.4632338,27.5130429 C32.7082658,27.5130429 32.0972636,28.0729635 32.0972636,29.0282016 C32.0972636,29.9834397 32.7082658,30.5544778 33.4632338,30.5544778 C34.2185429,30.5544778 34.8179459,29.9942333 34.8179459,29.0282016 C34.8179459,28.0729635 34.2185429,27.5130429 33.4632338,27.5130429 L33.4632338,27.5130429 Z M30.6425941,33.8151857 L30.6425941,26.3270905 L32.0750888,26.3270905 L32.0750888,26.9861778 C32.3193532,26.5689222 32.9303553,26.2063365 33.7518478,26.2063365 C35.3511655,26.2063365 36.2729566,27.4142 36.2729566,29.0170571 C36.2729566,30.6533206 35.2399502,31.8608603 33.6965813,31.8608603 C32.9412722,31.8608603 32.3862188,31.5643587 32.1194385,31.2020968 L32.1194385,33.8151857 L30.6425941,33.8151857 Z" id="path4564"></path>
                <path d="M41.2808542,29.0281746 C41.2808542,28.0071492 40.6145856,27.4910778 39.8927093,27.4910778 C39.1711741,27.4910778 38.5045643,28.0071492 38.5045643,29.0281746 C38.5045643,30.0383794 39.1711741,30.5652444 39.8927093,30.5652444 C40.6145856,30.5652444 41.2808542,30.049173 41.2808542,29.0281746 M42.7576986,29.0281746 C42.7576986,30.6859984 41.5251186,31.8938889 39.8927093,31.8938889 C38.2602999,31.8938889 37.0277199,30.6859984 37.0277199,29.0281746 C37.0277199,27.3592063 38.2602999,26.1624603 39.8927093,26.1624603 C41.5251186,26.1624603 42.7576986,27.3592063 42.7576986,29.0281746" id="path4568"></path>
                <path d="M47.7324718,29.0281746 C47.7324718,30.0053238 48.3765656,30.5544508 49.1315336,30.5544508 C49.8868428,30.5544508 50.2641562,30.0603175 50.3866296,29.6430619 L51.6857341,30.0714349 C51.4414697,30.9717063 50.5862032,31.8938889 49.1315336,31.8938889 C47.5212991,31.8938889 46.2552863,30.6859984 46.2552863,29.0281746 C46.2552863,27.3592063 47.4991243,26.1624603 49.087184,26.1624603 C50.5752863,26.1624603 51.4192948,27.0738492 51.6523012,27.9852381 L50.3310219,28.4244048 C50.1976317,27.9740937 49.85341,27.5130159 49.1206168,27.5130159 C48.3653076,27.5130159 47.7324718,28.0509984 47.7324718,29.0281746" id="path4572"></path>
                <path d="M55.1502629,30.5543429 C55.905572,30.5543429 56.4940582,29.9833048 56.4940582,29.0061286 C56.4940582,28.0400968 55.905572,27.5021143 55.1502629,27.5021143 C54.3952948,27.5021143 53.7955507,28.0508905 53.7955507,29.017273 C53.7955507,29.9833048 54.3727788,30.5543429 55.1502629,30.5543429 L55.1502629,30.5543429 Z M57.9265528,30.7520016 C57.9265528,31.1142635 57.9487413,31.509581 57.9709025,31.7291778 L56.5605827,31.7291778 C56.5383942,31.6195413 56.504975,31.3557714 56.504975,31.1034698 C56.2607106,31.531519 55.7056573,31.8610492 54.972523,31.8610492 C53.4178961,31.8610492 52.3074484,30.6531857 52.3074484,29.017273 C52.3074484,27.436327 53.3848044,26.1954079 54.9281733,26.1954079 C55.8721392,26.1954079 56.3163183,26.5799317 56.4715422,26.8652889 L56.4715422,23.7799778 L57.9265528,23.7799778 L57.9265528,30.7520016 Z" id="path4576"></path>
                <path d="M62.3457924,27.5130429 C61.5908244,27.5130429 60.9798223,28.0729635 60.9798223,29.0282016 C60.9798223,29.9834397 61.5908244,30.5544778 62.3457924,30.5544778 C63.1011016,30.5544778 63.7005046,29.9942333 63.7005046,29.0282016 C63.7005046,28.0729635 63.1011016,27.5130429 62.3457924,27.5130429 L62.3457924,27.5130429 Z M59.5251528,33.8151857 L59.5251528,26.3270905 L60.9576474,26.3270905 L60.9576474,26.9861778 C61.2019118,26.5689222 61.8129139,26.2063365 62.6344065,26.2063365 C64.2337242,26.2063365 65.1555152,27.4142 65.1555152,29.0170571 C65.1555152,30.6533206 64.1225088,31.8608603 62.57914,31.8608603 C61.8238308,31.8608603 61.2687775,31.5643587 61.0019971,31.2020968 L61.0019971,33.8151857 L59.5251528,33.8151857 Z" id="path4580"></path>
                <path d="M4.03469919,11.5662063 C4.13568,12.862119 5.11034951,14.0585143 7.05968853,14.0585143 C8.53857979,14.0585143 9.244422,13.2945397 9.244422,12.430373 C9.244422,11.6991032 8.74020026,11.101054 7.46292947,10.8352603 L5.27853714,10.3367286 C2.08536017,9.63886508 0.639901748,7.74457937 0.639901748,5.45160317 C0.639901748,2.52719841 3.26165015,0.101325397 6.82429407,0.101325397 C11.5301363,0.101325397 13.1096672,3.05878571 13.3112877,4.8201746 L9.58045612,5.65093492 C9.44604247,4.68727778 8.74020026,3.4578 6.85806806,3.4578 C5.68177808,3.4578 4.74054141,4.15569048 4.74054141,5.08596825 C4.74054141,5.88367302 5.34540281,6.38220476 6.2528655,6.54815714 L8.60578661,7.04668889 C11.8661704,7.71152381 13.5129081,9.67192063 13.5129081,12.0647381 C13.5129081,14.7233492 11.4291555,17.4480714 7.09312136,17.4480714 C2.11879301,17.4480714 0.404848443,14.2581968 0.203227974,12.3969667 L4.03469919,11.5662063 L4.03469919,11.5662063 Z" id="path4584"></path>
                <path d="M24.4367447,13.5934429 C26.7558919,13.5934429 28.5036104,11.6991571 28.5036104,8.70831746 C28.5036104,5.71745079 26.7893247,3.9560619 24.4367447,3.9560619 C22.0503908,3.9560619 20.3026722,5.71745079 20.3026722,8.70831746 C20.3026722,11.6657778 22.0166168,13.5934429 24.4367447,13.5934429 L24.4367447,13.5934429 Z M28.5373844,14.7234032 C27.831201,16.2851095 26.1172565,17.4150698 23.8990901,17.4150698 C19.0254014,17.4150698 15.7987916,13.6599048 15.7987916,8.70831746 C15.7987916,3.92300635 18.9581946,0.134434921 23.7643354,0.134434921 C26.7221179,0.134434921 28.1003695,1.69649206 28.5036104,2.62709365 L28.5036104,0.599911111 L32.8393034,0.599911111 L32.8393034,13.9921333 C32.8393034,15.4543492 32.9402842,16.5843095 32.973717,16.9495937 L28.7052309,16.9495937 C28.6380241,16.5843095 28.5373844,15.7201429 28.5373844,14.9227619 L28.5373844,14.7234032 L28.5373844,14.7234032 Z" id="path4588"></path>
                <path d="M40.7385272,8.77483333 C40.7385272,11.7322937 42.6878663,13.3938413 44.9735806,13.3938413 C47.2589537,13.3938413 48.4018108,11.8985698 48.7716189,10.6357127 L52.704071,11.9316254 C51.9644548,14.6566984 49.3764803,17.4482063 44.9735806,17.4482063 C40.0998919,17.4482063 36.2684206,13.7928556 36.2684206,8.77483333 C36.2684206,3.72372857 40.032685,0.101460317 44.8391669,0.101460317 C49.3430475,0.101460317 51.8972479,2.8595619 52.6030901,5.61769048 L48.6034313,6.94698254 C48.2001904,5.58463492 47.158314,4.18888095 44.9398066,4.18888095 C42.6544334,4.18888095 40.7385272,5.81702222 40.7385272,8.77483333" id="path4592"></path>
                <path d="M66.4845728,6.91387302 C66.417366,5.28538095 65.3417157,3.69026825 62.7875152,3.69026825 C60.4683681,3.69026825 59.1910973,5.41827778 59.0901165,6.91387302 L66.4845728,6.91387302 Z M70.6520781,12.2641508 C69.8121634,15.0887143 67.190415,17.4481254 63.1235493,17.4481254 C58.5858948,17.4481254 54.5862359,14.2248714 54.5862359,8.70831746 C54.5862359,3.49093651 58.4852551,0.101379365 62.7199672,0.101379365 C67.8290504,0.101379365 70.8874726,3.32463333 70.8874726,8.57542063 C70.8874726,9.20684921 70.8202658,9.87133333 70.8202658,9.93776825 L58.9891357,9.93776825 C59.0901165,12.0978476 60.9388159,13.6599048 63.1569822,13.6599048 C65.241076,13.6599048 66.383592,12.6297857 66.9215877,11.1675698 L70.6520781,12.2641508 L70.6520781,12.2641508 Z" id="path4596"></path>
            </g>
        </g>
    </g>
</svg>