<?xml version="1.0" encoding="UTF-8"?>
<svg width="110px" height="76px" viewBox="0 0 110 76" version="1.1" xmlns="http://www.w3.org/2000/svg" xmlns:xlink="http://www.w3.org/1999/xlink">
    <!-- Generator: Sketch 44.1 (41455) - http://www.bohemiancoding.com/sketch -->
    <title>icona</title>
    <desc>Created with Sketch.</desc>
    <defs>
        <path d="M76.5296721,-6.09375 L76.4131886,31.875 C76.4131886,33.8671875 76.2967051,35.9765625 75.9472545,37.96875 L71.2879137,66.4453125 L71.2879137,67.03125 L75.7142875,79.921875 L59.7560451,92.34375 L55.4461548,73.125 C55.4461548,72.890625 55.2131878,72.65625 55.0967043,72.5390625 L44.2637368,63.515625 C41.1186818,61.0546875 38.6725278,57.7734375 37.0417585,54.140625 L35.4109892,50.390625 C35.4109892,50.2734375 35.2945057,50.15625 35.1780222,50.0390625 L29.9362638,44.1796875 C29.9362638,44.1796875 29.8197802,44.0625 29.8197802,43.9453125 C29.5868132,43.7109375 29.4703297,43.359375 29.4703297,43.125 C29.4703297,42.7734375 29.7032967,42.5390625 30.0527473,42.3046875 C31.567033,41.3671875 33.3142859,40.8984375 34.9450552,40.8984375 C37.158242,40.8984375 39.4879125,41.71875 41.2351653,43.2421875 L49.7384623,51.09375 C49.9714293,51.328125 50.3208799,51.4453125 50.553847,51.4453125 C50.9032975,51.4453125 51.1362646,51.328125 51.3692316,51.09375 L58.9406605,42.65625 L59.290111,42.1875 C61.0373638,40.3125 63.2505507,38.0859375 63.7164848,35.5078125 L70.239562,1.63424829e-13 C71.0549466,-3.515625 72.5692324,-5.390625 75.2483534,-5.7421875 L76.5296721,-6.09375 Z" id="path-1"></path>
    </defs>
    <g id="Factoring" stroke="none" stroke-width="1" fill="none" fill-rule="evenodd">
        <g id="SACE-Factoring-step01" transform="translate(-338.000000, -1424.000000)">
            <g id="Imprese-ci-hanno-scelto-Copy" transform="translate(0.000000, 1368.000000)">
                <g id="A" transform="translate(288.000000, 56.000000)">
                    <g id="icona" transform="translate(50.000000, 0.000000)">
                        <rect id="Rectangle-4" fill="#DD0031" x="40" y="38.671875" width="55" height="8"></rect>
                        <rect id="Rectangle-4-Copy" fill="#DD0031" x="40" y="25.78125" width="55" height="8"></rect>
                        <rect id="Rectangle-4-Copy-2" fill="#DD0031" x="40" y="12.890625" width="55" height="8"></rect>
                        <rect id="Rectangle-4-Copy-3" fill="#DD0031" x="40" y="0" width="55" height="8"></rect>
                        <g id="Shape" fill-rule="nonzero" transform="translate(53.000001, 43.125000) rotate(80.000000) translate(-53.000001, -43.125000) ">
                            <use fill="#001F5B" fill-rule="evenodd" xlink:href="#path-1"></use>
                            <path stroke="#FFFFFF" stroke-width="3" d="M31.068047,43.195065 L31.0542054,43.1795843 C31.0522704,43.1764128 31.0579184,43.1825169 31.068047,43.195065 Z M71.2879137,67.03125 L72.7066052,66.5441007 L77.4808074,80.4476825 L58.8101775,94.9808764 L54.0128258,73.5884285 L43.3393699,64.6969572 C40.0723968,62.1406215 37.4444876,58.7005076 35.6661983,54.7388174 L34.0547139,51.0331636 L28.872413,45.2371474 C28.7938446,45.1581043 28.7111402,45.0610327 28.6276402,44.9350256 C28.5717662,44.8507081 28.5214747,44.7633894 28.4785163,44.6714701 C28.1527692,44.2100268 27.9703297,43.6452174 27.9703297,43.125 C27.9703297,42.1883408 28.4409863,41.5795537 29.2631636,41.0293218 C30.9788633,39.9671257 32.9926445,39.3984375 34.9450552,39.3984375 C37.5646025,39.3984375 40.2322645,40.3776561 42.2527509,42.1401351 L50.5291485,49.7840023 L57.7787682,41.7051221 L58.0875153,41.2909714 L58.1927264,41.1648822 C58.3098951,41.039147 58.7151782,40.6062804 58.7586878,40.5597075 C58.9836335,40.3189249 59.1583029,40.1303134 59.3267307,39.9456682 C61.083453,38.0197969 61.9891715,36.6311361 62.2411732,35.2367856 L68.7783482,-0.338901692 C69.7285068,-4.43561994 71.6759298,-6.74184758 74.9459408,-7.21464991 L78.0357188,-8.06240937 L78.029665,-6.0891482 L77.9131886,31.875 C77.9131886,34.1822316 77.7627979,36.3004253 77.4275702,38.2109595 L72.7682294,66.687522 L71.2879137,66.4453125 L72.7879137,66.4453125 L72.7879137,67.03125 L71.2879137,67.03125 Z"></path>
                        </g>
                    </g>
                </g>
            </g>
        </g>
    </g>
</svg>