<?xml version="1.0" encoding="UTF-8"?>
<svg width="94px" height="106px" viewBox="0 0 94 106" version="1.1" xmlns="http://www.w3.org/2000/svg" xmlns:xlink="http://www.w3.org/1999/xlink">
    <!-- Generator: Sketch 44.1 (41455) - http://www.bohemiancoding.com/sketch -->
    <title>icona</title>
    <desc>Created with Sketch.</desc>
    <defs></defs>
    <g id="Landing" stroke="none" stroke-width="1" fill="none" fill-rule="evenodd">
        <g id="SACE-Landing-02" transform="translate(-133.000000, -3567.000000)" fill-rule="nonzero">
            <g id="Imprese-ci-hanno-scelto-Copy" transform="translate(0.000000, 3272.000000)">
                <g id="A" transform="translate(32.000000, 295.000000)">
                    <g id="icona" transform="translate(101.000000, 0.000000)">
                        <path d="M93.7,21.8 L93.6,54.2 C93.6,55.9 93.5,57.7 93.2,59.4 L89.2,83.7 L89.2,84.2 L93,95.2 L79.3,105.8 L75.6,89.4 C75.6,89.2 75.4,89 75.3,88.9 L66,81.2 C63.3,79.1 61.2,76.3 59.8,73.2 L58.4,70 C58.4,69.9 58.3,69.8 58.2,69.7 L53.7,64.7 C53.7,64.7 53.6,64.6 53.6,64.5 C53.4,64.3 53.3,64 53.3,63.8 C53.3,63.5 53.5,63.3 53.8,63.1 C55.1,62.3 56.6,61.9 58,61.9 C59.9,61.9 61.9,62.6 63.4,63.9 L70.7,70.6 C70.9,70.8 71.2,70.9 71.4,70.9 C71.7,70.9 71.9,70.8 72.1,70.6 L78.6,63.4 L78.9,63 C80.4,61.4 82.3,59.5 82.7,57.3 L88.3,27 C89,24 90.3,22.4 92.6,22.1 L93.7,21.8 Z" id="Shape" fill="#001F5B"></path>
                        <path d="M40.6,63.7 C40.6,64 40.5,64.2 40.2,64.5 C40.2,64.5 40.1,64.5 40.1,64.6 L35.6,69.6 C35.5,69.7 35.5,69.8 35.4,69.9 L34.1,73 C32.7,76.1 30.6,78.8 27.9,81 L18.6,88.6 C18.4,88.7 18.3,88.9 18.3,89.1 L14.6,105.5 L1,95 L4.8,84 C4.8,83.8 4.9,83.7 4.8,83.5 L0.8,59.2 C0.5,57.5 0.4,55.7 0.4,54 L0.3,21.7 L1.3,21.8 C3.6,22.1 5,23.7 5.6,26.7 L11.2,57 C11.6,59.2 13.5,61.2 15,62.7 L21.8,70.3 C22,70.5 22.2,70.6 22.5,70.6 C22.8,70.6 23,70.5 23.2,70.3 L30.5,63.6 C33.1,61.2 37.1,60.9 40.2,62.8 C40.4,63.2 40.6,63.4 40.6,63.7 Z" id="Shape" fill="#001F5B"></path>
                        <path d="M72.3,25.7 C72.3,38.4 62.9,49 50.6,50.7 L49.9,45.8 C49.9,45.5 49.6,45.2 49.3,45 L39.6,40.9 L34.8,36.1 L36.1,29.9 L39.4,23.9 L47,23.2 L54.6,25.5 L55.1,25.5 L64.1,23.2 L69.3,22 L72,22 C72.2,23.2 72.3,24.4 72.3,25.7 Z" id="Shape" fill="#DD0031"></path>
                        <path d="M67.3,10.7 L61.1,12.4 L53.4,10.7 C53.2,10.6 52.9,10.7 52.7,10.8 L45.1,15 L38.8,13.8 L39.4,10.6 L44.2,9.8 C44.5,9.8 44.7,9.6 44.9,9.3 L50.2,0.5 C57.3,1.5 63.3,5.3 67.3,10.7 Z" id="Shape" fill="#DD0031"></path>
                        <path d="M71.6,19.9 L69.2,19.9 L69,19.9 L63.7,21.2 L54.9,23.5 L47.4,21.2 L47,21.2 L38.6,22 C38.3,22 38,22.2 37.8,22.5 L34.2,29.1 C34.2,29.2 34.1,29.3 34.1,29.4 L32.7,36.3 C32.6,36.6 32.7,37 33,37.2 L38.3,42.5 C38.4,42.6 38.5,42.7 38.6,42.7 L47.9,46.7 L48.5,50.9 C48,50.9 47.4,51 46.9,51 C33,51 21.6,39.7 21.6,25.7 C21.6,11.8 32.9,0.4 46.9,0.4 L47.9,0.4 L43.5,8 L38.4,8.9 C38,9 37.7,9.3 37.6,9.7 L36.7,14.6 C36.6,15.1 37,15.7 37.5,15.8 L45.1,17.2 L45.3,17.2 C45.5,17.2 45.6,17.2 45.8,17.1 L53.5,12.9 L61.1,14.5 L61.6,14.5 L68.6,12.5 C69.9,14.7 71,17.3 71.6,19.9 Z" id="Shape" fill="#001F5B"></path>
                    </g>
                </g>
            </g>
        </g>
    </g>
</svg>