<?xml version="1.0" encoding="UTF-8"?>
<svg width="40px" height="40px" viewBox="0 0 40 40" version="1.1" xmlns="http://www.w3.org/2000/svg" xmlns:xlink="http://www.w3.org/1999/xlink">
    <!-- Generator: Sketch 44.1 (41455) - http://www.bohemiancoding.com/sketch -->
    <title>Icon/ImportoContratto</title>
    <desc>Created with Sketch.</desc>
    <defs></defs>
    <g id="Symbols" stroke="none" stroke-width="1" fill="none" fill-rule="evenodd">
        <g id="Icon/ImportoContratto" fill-rule="nonzero">
            <path d="M33.1278692,14.5 L29,14.5 C25.9624339,14.5 23.5,16.9624339 23.5,20 C23.5,23.0375661 25.9624339,25.5 29,25.5 L33.1265195,25.5 L33.1265195,22.5 L29,22.5 C27.6192881,22.5 26.5,21.3807119 26.5,20 C26.5,18.6192881 27.6192881,17.5 29,17.5 L33.1278692,17.5 L33.1278692,14.5 Z" id="Oval-3" fill="#DD0031"></path>
            <path d="M7,30 L33,30 L33,10 L7,10 L7,30 Z M4,7 L36,7 L36,33 L4,33 L4,7 Z" id="Rectangle-2" fill="#001F5B"></path>
        </g>
    </g>
</svg>