<?xml version="1.0" encoding="UTF-8"?>
<svg width="40px" height="40px" viewBox="0 0 40 40" version="1.1" xmlns="http://www.w3.org/2000/svg" xmlns:xlink="http://www.w3.org/1999/xlink">
    <!-- Generator: Sketch 44.1 (41455) - http://www.bohemiancoding.com/sketch -->
    <title>Icon/Paese</title>
    <desc>Created with Sketch.</desc>
    <defs></defs>
    <g id="Symbols" stroke="none" stroke-width="1" fill="none" fill-rule="evenodd">
        <g id="Icon/Paese">
            <path d="M31.4493227,21.0537461 C31.4516273,20.4109802 31.4548678,19.7420536 31.4594739,18.9267864 C31.4622697,18.4319361 31.4738065,16.5083274 31.4727182,16.6923008 C31.4875713,14.1814914 31.4959634,12.2378872 31.4988486,10.0960621 C27.9419444,10.5887537 25.6334526,10.0925673 22.7931172,8.731653 C22.804444,8.73708012 22.19223,8.44194025 22.0259206,8.36338774 C20.7054882,7.73971144 19.8771237,7.5 18.7462582,7.5 C16.8992034,7.5 15.4270677,7.87291136 14.2822002,8.48193877 C13.9503998,8.65844438 13.6907562,8.82747394 13.5,8.97028491 L13.5,20.33485 C15.0520584,19.5013993 16.5282024,19.2008687 18.6706972,19.3330012 C20.7357731,19.460359 22.2050209,19.9026315 24.5140895,20.8949454 C24.6123878,20.9371887 24.7544018,20.9984563 24.9890224,21.0996326 C25.1716199,21.178237 25.3126267,21.2384325 25.4483553,21.2955298 C27.7165147,22.2496813 29.2538442,22.5137109 31.4466185,21.9937376 C31.4472677,21.6872923 31.4481707,21.3750281 31.4493227,21.0537461 Z M33.3943569,24.564551 C29.8504145,25.6762751 27.5023746,25.4142392 24.285078,24.060812 C24.1404363,23.9999653 23.9923992,23.9367686 23.8028244,23.8551605 C23.5650081,23.7526073 23.4255234,23.6924309 23.3295962,23.6512065 C21.3107559,22.7836172 20.132143,22.4288316 18.4860313,22.3273122 C16.2846759,22.1915497 15.2223882,22.6137297 13.2853409,24.0477108 C13.1225863,24.1684051 13.1225863,24.1684051 12.9553392,24.2924354 C12.9233722,24.3160946 12.9233722,24.3160946 12.8912213,24.3398537 L10.5,26.1061586 L10.5,7.7659763 L10.8547786,7.34656786 C11.2168331,6.91855823 11.8792753,6.36213877 12.8732615,5.83337468 C14.4486401,4.99533119 16.4040504,4.5 18.7462582,4.5 C20.396212,4.5 21.6215556,4.85458891 23.3071726,5.65075192 C23.486223,5.73532228 24.1104707,6.03626346 24.089416,6.02617533 C26.8235043,7.33618262 28.747793,7.64651601 32.7020868,6.84519519 L34.5,6.48085573 L34.5,8.31531346 C34.5,11.2430224 34.4915343,13.5204589 34.4726657,16.7100475 C34.473751,16.5265867 34.4622183,18.4494984 34.459426,18.9437356 C34.4548307,19.7571014 34.4515997,20.4240683 34.4493034,21.0645026 C34.446709,21.7880763 34.4453839,22.4653573 34.4453839,23.1333196 L34.4453839,24.2348469 L33.3943569,24.564551 Z" id="Path" fill="#DD0031" fill-rule="nonzero"></path>
            <rect id="Rectangle" fill="#001F5B" x="5" y="5" width="3" height="32"></rect>
        </g>
    </g>
</svg>