<?xml version="1.0" encoding="UTF-8"?>
<svg width="40px" height="40px" viewBox="0 0 40 40" version="1.1" xmlns="http://www.w3.org/2000/svg" xmlns:xlink="http://www.w3.org/1999/xlink">
    <!-- Generator: Sketch 44.1 (41455) - http://www.bohemiancoding.com/sketch -->
    <title>Icon/Phone</title>
    <desc>Created with Sketch.</desc>
    <defs></defs>
    <g id="Symbols" stroke="none" stroke-width="1" fill="none" fill-rule="evenodd">
        <g id="Icon/Phone">
            <path d="M0.40598141,27.6043723 C-0.887485365,24.4495752 0.910748932,21.8941897 1.60480428,21.1685864 C1.82564007,20.9477506 4.88579317,17.5405698 14.0031565,17.288186 C21.3538336,17.0988982 25.6443575,20.474531 26.4015088,21.1685864 C27.1586601,21.8310937 28.7360586,23.8186158 27.6003317,27.6043723 C27.4741398,28.0775918 26.9378243,28.7400992 26.6223446,28.7400992 C26.4961527,28.7400992 21.0383539,27.4150844 20.880614,27.3519885 C20.7228742,27.2888926 20.5651343,27.2257966 20.4704904,27.0996047 C20.3127506,26.9418649 20.2181067,26.6263852 20.2181067,26.1847136 C20.2181067,25.743042 20.2181067,25.2698225 20.3127506,24.8281509 C20.3758465,24.3864793 20.4073945,23.9448077 20.4073945,23.5031361 C20.4073945,23.0614646 20.3442985,22.7775328 20.2181067,22.651341 C19.839531,22.3043133 18.2621325,21.2947782 14.0031565,21.57871 C9.77572854,21.8626417 8.13523409,22.3674092 7.97749424,22.4305052 C7.81975439,22.4936011 7.72511048,22.556697 7.66201454,22.619793 C7.53582266,22.7459849 7.44117875,23.0614646 7.47272672,23.4715882 C7.47272672,23.9132598 7.75665845,25.6483981 7.72511048,26.0900697 C7.72511048,26.5317413 7.63046657,26.847221 7.47272672,27.0049608 C7.37808281,27.0996047 7.22034296,27.1942486 7.06260311,27.2573446 C6.87331529,27.3519885 1.51016036,28.7400992 1.38396848,28.7400992 C1.00539284,28.7400992 0.563721261,28.0460438 0.40598141,27.6043723" id="Shape" fill="#001F5B" fill-rule="nonzero" transform="translate(13.974302, 23.010313) rotate(-126.000000) translate(-13.974302, -23.010313) "></path>
            <g id="Group-2" transform="translate(25.500000, 15.500000) rotate(7.000000) translate(-25.500000, -15.500000) translate(19.000000, 9.000000)" stroke="#DD0031" stroke-width="3">
                <path d="M6,13 C6,9.6862915 3.3137085,7 9.9475983e-14,7" id="Oval-7"></path>
                <path d="M13,13 C13,5.82029825 7.17970175,0 9.9475983e-14,0" id="Oval-7-Copy"></path>
            </g>
        </g>
    </g>
</svg>