<?xml version="1.0" encoding="UTF-8"?>
<svg width="75px" height="106px" viewBox="0 0 75 106" version="1.1" xmlns="http://www.w3.org/2000/svg" xmlns:xlink="http://www.w3.org/1999/xlink">
    <!-- Generator: Sketch 44.1 (41455) - http://www.bohemiancoding.com/sketch -->
    <title>Group</title>
    <desc>Created with Sketch.</desc>
    <defs></defs>
    <g id="Landing" stroke="none" stroke-width="1" fill="none" fill-rule="evenodd">
        <g id="SACE-Landing-02" transform="translate(-803.000000, -3567.000000)" fill-rule="nonzero">
            <g id="Imprese-ci-hanno-scelto-Copy" transform="translate(0.000000, 3272.000000)">
                <g id="C" transform="translate(688.000000, 295.000000)">
                    <g id="Group" transform="translate(115.000000, 0.000000)">
                        <path d="M72.0416667,59 C71.6,59 71.3791667,59 71.1583333,58.7791667 L70.9375,58.7791667 C60.5583333,53.7 52.8291667,52.8166667 46.8666667,55.6875 L46.6458333,55.9083333 C37.8125,60.1041667 27.4333333,60.325 18.6,55.9083333 C17.4958333,55.4666667 16.8333333,54.5833333 16.8333333,53.7 L16.8333333,21.4583333 C16.8333333,20.7958333 17.275,19.9125 17.9375,19.6916667 C18.6,19.25 19.4833333,19.25 20.1458333,19.4708333 L20.3666667,19.4708333 C30.7458333,24.55 38.475,25.4333333 44.4375,22.5625 L44.6583333,22.3416667 C53.4916667,18.1458333 64.0916667,17.925 72.925,22.3416667 C73.5875,22.7833333 74.25,23.6666667 74.25,24.55 L74.25,56.7916667 C74.25,57.4541667 73.8083333,58.3375 73.1458333,58.5583333 C72.925,58.7791667 72.4833333,59 72.0416667,59 Z M21.25,52.375 C28.5375,55.4666667 37.15,55.2458333 44.4375,51.7125 L44.8791667,51.4916667 C53.2708333,47.5166667 62.7666667,50.1666667 69.8333333,53.2583333 L69.8333333,25.875 C62.325,22.7833333 53.7125,23.0041667 46.6458333,26.5375 L46.2041667,26.7583333 C37.8125,30.7333333 28.3166667,28.0833333 21.25,24.9916667 L21.25,52.375 Z" id="Shape" fill="#DD0031"></path>
                        <path d="M11.0416667,17.6666667 C6.18333333,17.6666667 2.20833333,13.6916667 2.20833333,8.83333333 C2.20833333,3.975 6.18333333,0 11.0416667,0 C15.9,0 19.875,3.975 19.875,8.83333333 C19.875,13.6916667 15.9,17.6666667 11.0416667,17.6666667 Z M11.0416667,4.41666667 C8.6125,4.41666667 6.625,6.40416667 6.625,8.83333333 C6.625,11.2625 8.6125,13.25 11.0416667,13.25 C13.4708333,13.25 15.4583333,11.2625 15.4583333,8.83333333 C15.4583333,6.40416667 13.4708333,4.41666667 11.0416667,4.41666667 Z" id="Shape" fill="#001F5B"></path>
                        <path d="M11.0416667,97.1666667 C9.71666667,97.1666667 8.83333333,96.2833333 8.83333333,94.9583333 L8.83333333,15.4583333 C8.83333333,14.1333333 9.71666667,13.25 11.0416667,13.25 C12.3666667,13.25 13.25,14.1333333 13.25,15.4583333 L13.25,94.9583333 C13.25,96.2833333 12.3666667,97.1666667 11.0416667,97.1666667 Z" id="Shape" fill="#001F5B"></path>
                        <path d="M19.875,106 L2.20833333,106 C0.883333333,106 0,105.116667 0,103.791667 L0,97.1666667 C0,94.7375 1.9875,92.75 4.41666667,92.75 L17.6666667,92.75 C20.0958333,92.75 22.0833333,94.7375 22.0833333,97.1666667 L22.0833333,103.791667 C22.0833333,105.116667 21.2,106 19.875,106 Z M4.41666667,101.583333 L17.6666667,101.583333 L17.6666667,97.1666667 L4.41666667,97.1666667 L4.41666667,101.583333 Z" id="Shape" fill="#001F5B"></path>
                    </g>
                </g>
            </g>
        </g>
    </g>
</svg>