<?xml version="1.0" encoding="UTF-8"?>
<svg width="40px" height="40px" viewBox="0 0 40 40" version="1.1" xmlns="http://www.w3.org/2000/svg" xmlns:xlink="http://www.w3.org/1999/xlink">
    <!-- Generator: Sketch 44.1 (41455) - http://www.bohemiancoding.com/sketch -->
    <title>Icon/Search</title>
    <desc>Created with Sketch.</desc>
    <defs></defs>
    <g id="Symbols" stroke="none" stroke-width="1" fill="none" fill-rule="evenodd">
        <g id="Icon/Search">
            <rect id="Rectangle-6-Copy" fill="#001F5B" transform="translate(28.717514, 29.717514) rotate(-315.000000) translate(-28.717514, -29.717514) " x="20.7175144" y="28.2175144" width="16" height="3"></rect>
            <path d="M16,28.5 C9.09644063,28.5 3.5,22.9035594 3.5,16 C3.5,9.09644063 9.09644063,3.5 16,3.5 C22.9035594,3.5 28.5,9.09644063 28.5,16 C28.5,22.9035594 22.9035594,28.5 16,28.5 Z M16,25.5 C21.2467051,25.5 25.5,21.2467051 25.5,16 C25.5,10.7532949 21.2467051,6.5 16,6.5 C10.7532949,6.5 6.5,10.7532949 6.5,16 C6.5,21.2467051 10.7532949,25.5 16,25.5 Z" id="Oval-6" fill="#001F5B" fill-rule="nonzero"></path>
            <circle id="Oval-6-Copy" fill="#DD0031" cx="16" cy="16" r="4"></circle>
        </g>
    </g>
</svg>