<?xml version="1.0" encoding="UTF-8"?>
<svg width="42px" height="42px" viewBox="0 0 42 42" version="1.1" xmlns="http://www.w3.org/2000/svg" xmlns:xlink="http://www.w3.org/1999/xlink">
    <!-- Generator: Sketch 45 (43475) - http://www.bohemiancoding.com/sketch -->
    <title>Icon/Activity/La nostra proposta</title>
    <desc>Created with Sketch.</desc>
    <defs></defs>
    <g id="2---Assicurazione" stroke="none" stroke-width="1" fill="none" fill-rule="evenodd">
        <g id="SACE-Assicurazione-01a" transform="translate(-251.000000, -315.000000)">
            <g id="Menu" transform="translate(221.000000, 216.000000)">
                <g id="Group">
                    <g id="2" transform="translate(14.000000, 96.000000)">
                        <g id="Icon/Activity/Assicurazione" transform="translate(13.000000, 0.000000)">
                            <g id="Group-2" stroke-width="1" fill-rule="evenodd" transform="translate(3.000000, 3.000000)" fill="#FFFFFF">
                                <circle id="Oval-8" cx="21" cy="21" r="21"></circle>
                            </g>
                            <path d="M23.7403187,40.0388622 L23.6408236,40.0148769 C15.5655325,36.8507358 11.5917455,32.8861786 11.5917455,27.8814676 L11.5917455,13.1165104 C11.5917455,12.6999768 11.7790366,12.3054119 12.1017197,12.0422799 C12.424544,11.7786555 12.8485956,11.6743805 13.2566703,11.758396 C14.4821074,12.0096758 16.1381074,12.0236405 17.7880141,11.7924894 C20.2716389,11.4437124 22.3695797,10.6065012 23.1782925,9.800356 C23.5751871,9.39074621 24.0980419,9.27756657 24.7182971,9.47060684 C24.9112837,9.55025934 25.0820077,9.67198684 25.2034587,9.80865144 C26.0313317,10.6179044 28.1170362,11.4459362 30.5854027,11.7924883 C32.2348615,12.0240893 33.892552,12.0102005 35.115521,11.7584415 C35.522998,11.6746309 35.9486036,11.7789802 36.2710303,12.0422799 C36.593678,12.3057601 36.7810045,12.7000141 36.7810045,13.1165104 L36.7810045,27.8804563 C36.7810045,32.88737 32.8044003,36.8524381 24.7383175,40.0107623 C24.6202518,40.0613333 24.5103186,40.0913361 24.3906006,40.1097694 C24.319893,40.1198705 24.2529865,40.125 24.184858,40.125 C24.1371088,40.125 24.1371088,40.125 24.1370259,39.375 C24.1941499,39.375 24.1941499,39.375 24.1942528,40.125 C24.1371088,40.125 24.1371088,40.125 24.1370259,39.375 C24.1941499,39.375 24.1941499,39.375 24.1942528,40.125 C24.0023097,40.125 23.8227528,40.0894116 23.6652755,40.0229997 C23.674902,40.0253892 23.6950148,40.0295315 23.7403187,40.0388622 Z M14.3640515,27.8807934 C14.3640515,31.4907186 17.5478218,34.5661551 24.1861929,37.245683 C30.8249905,34.565473 34.0080243,31.4906754 34.0080243,27.8807934 L34.0080243,14.6946256 C32.825597,14.7755517 31.5130957,14.7221869 30.1989364,14.5379533 C27.8187415,14.2035995 25.6378142,13.4692829 24.1861602,12.5187707 C22.7337815,13.4693813 20.5527499,14.2036243 18.1732305,14.5376033 C16.8598043,14.7224332 15.5476937,14.775912 14.3640515,14.6946959 L14.3640515,27.8807934 Z" id="Shape" fill="#006E62" fill-rule="nonzero"></path>
                            <g id="check" stroke-width="1" fill-rule="evenodd" transform="translate(17.250000, 20.250000)" fill="#DD0031">
                                <rect id="Rectangle-8-Copy-3" transform="translate(3.181981, 7.681981) rotate(45.000000) translate(-3.181981, -7.681981) " x="-0.193019485" y="6.55698052" width="6.75" height="2.25"></rect>
                                <rect id="Rectangle-8-Copy-4" transform="translate(8.625000, 5.625000) rotate(-45.000000) translate(-8.625000, -5.625000) " x="2.25" y="4.5" width="12.75" height="2.25"></rect>
                            </g>
                        </g>
                    </g>
                </g>
            </g>
        </g>
    </g>
</svg>