<?xml version="1.0" encoding="UTF-8"?>
<svg width="42px" height="42px" viewBox="0 0 42 42" version="1.1" xmlns="http://www.w3.org/2000/svg" xmlns:xlink="http://www.w3.org/1999/xlink">
    <!-- Generator: Sketch 44.1 (41455) - http://www.bohemiancoding.com/sketch -->
    <title>Icon/Activity/La nostra proposta</title>
    <desc>Created with Sketch.</desc>
    <defs></defs>
    <g id="Assicurazione" stroke="none" stroke-width="1" fill="none" fill-rule="evenodd">
        <g id="SACE-Config-03b" transform="translate(-46.000000, -307.000000)">
            <g id="Menu" transform="translate(0.000000, 65.000000)">
                <g id="Group" transform="translate(12.000000, 146.000000)">
                    <g id="2" transform="translate(14.000000, 96.000000)">
                        <g id="Icon/Activity/La-nostra-proposta" transform="translate(20.000000, 0.000000)">
                            <g id="Group-2" fill="#DD0031">
                                <circle id="Oval-8" cx="21" cy="21" r="21"></circle>
                            </g>
                            <path d="M20.7403187,37.0388622 L20.6408236,37.0148769 C12.5655325,33.8507358 8.59174552,29.8861786 8.59174552,24.8814676 L8.59174552,10.1165104 C8.59174552,9.69997677 8.77903661,9.30541191 9.1017197,9.04227989 C9.42454396,8.77865549 9.84859561,8.6743805 10.2566703,8.75839599 C11.4821074,9.00967578 13.1381074,9.02364046 14.7880141,8.79248938 C17.2716389,8.4437124 19.3695797,7.6065012 20.1782925,6.800356 C20.5751871,6.39074621 21.0980419,6.27756657 21.7182971,6.47060684 C21.9112837,6.55025934 22.0820077,6.67198684 22.2034587,6.80865144 C23.0313317,7.61790439 25.1170362,8.44593622 27.5854027,8.79248834 C29.2348615,9.0240893 30.892552,9.01020049 32.115521,8.7584415 C32.522998,8.6746309 32.9486036,8.77898015 33.2710303,9.04227989 C33.593678,9.3057601 33.7810045,9.70001413 33.7810045,10.1165104 L33.7810045,24.8804563 C33.7810045,29.88737 29.8044003,33.8524381 21.7383175,37.0107623 C21.6202518,37.0613333 21.5103186,37.0913361 21.3906006,37.1097694 C21.319893,37.1198705 21.2529865,37.125 21.184858,37.125 C21.1371088,37.125 21.1371088,37.125 21.1370259,36.375 C21.1941499,36.375 21.1941499,36.375 21.1942528,37.125 C21.1371088,37.125 21.1371088,37.125 21.1370259,36.375 C21.1941499,36.375 21.1941499,36.375 21.1942528,37.125 C21.0023097,37.125 20.8227528,37.0894116 20.6652755,37.0229997 C20.674902,37.0253892 20.6950148,37.0295315 20.7403187,37.0388622 Z M11.3640515,24.8807934 C11.3640515,28.4907186 14.5478218,31.5661551 21.1861929,34.245683 C27.8249905,31.565473 31.0080243,28.4906754 31.0080243,24.8807934 L31.0080243,11.6946256 C29.825597,11.7755517 28.5130957,11.7221869 27.1989364,11.5379533 C24.8187415,11.2035995 22.6378142,10.4692829 21.1861602,9.51877074 C19.7337815,10.4693813 17.5527499,11.2036243 15.1732305,11.5376033 C13.8598043,11.7224332 12.5476937,11.775912 11.3640515,11.6946959 L11.3640515,24.8807934 Z" id="Shape" fill="#FFFFFF" fill-rule="nonzero"></path>
                            <g id="check" transform="translate(14.250000, 17.250000)" fill="#FFFFFF">
                                <rect id="Rectangle-8-Copy-3" transform="translate(3.181981, 7.681981) rotate(45.000000) translate(-3.181981, -7.681981) " x="-0.193019485" y="6.55698052" width="6.75" height="2.25"></rect>
                                <rect id="Rectangle-8-Copy-4" transform="translate(8.625000, 5.625000) rotate(-45.000000) translate(-8.625000, -5.625000) " x="2.25" y="4.5" width="12.75" height="2.25"></rect>
                            </g>
                        </g>
                    </g>
                </g>
            </g>
        </g>
    </g>
</svg>