<?xml version="1.0" encoding="UTF-8"?>
<svg width="84px" height="106px" viewBox="0 0 84 106" version="1.1" xmlns="http://www.w3.org/2000/svg" xmlns:xlink="http://www.w3.org/1999/xlink">
    <!-- Generator: Sketch 44.1 (41455) - http://www.bohemiancoding.com/sketch -->
    <title>icona</title>
    <desc>Created with Sketch.</desc>
    <defs></defs>
    <g id="Landing" stroke="none" stroke-width="1" fill="none" fill-rule="evenodd">
        <g id="SACE-Landing-02" transform="translate(-466.000000, -3567.000000)" fill-rule="nonzero">
            <g id="Imprese-ci-hanno-scelto-Copy" transform="translate(0.000000, 3272.000000)">
                <g id="B" transform="translate(360.000000, 295.000000)">
                    <g id="icona" transform="translate(106.000000, 0.000000)">
                        <path d="M81.3548535,30.5480315 C75.9672526,15.7122047 59.0139912,0.375590551 33.261675,8.03346457 L33.2408734,8.03346457 C33.2408734,8.03346457 33.2408734,8.03346457 33.2200719,8.03346457 C13.7914262,15.1488189 3.72347706,36.7870079 10.8168049,56.2968504 C16.2044057,71.111811 33.1784688,86.5110236 58.9099834,78.8114173 L58.930785,78.8114173 L58.9515865,78.8114173 C78.3594306,71.696063 88.4273798,50.0370079 81.3548535,30.5480315 Z M77.4857656,30.1307087 L64.6928137,34.8047244 C62.4462465,29.0248031 59.5964345,23.85 56.3929961,19.6141732 L66.3777391,15.9625984 C71.2036982,19.5515748 75.0727861,24.3925197 77.4857656,30.1307087 Z M41.2702709,25.1437008 L52.9607407,20.8870079 C56.2473853,25.0185039 59.2220066,30.1933071 61.5101769,35.9732283 L47.1155058,41.2314961 L41.2702709,25.1437008 Z M50.9013875,61.7011811 L39.2109176,65.957874 C35.9242731,61.826378 32.9496517,56.6515748 30.6614815,50.8716535 L45.0561526,45.6133858 L50.9013875,61.7011811 Z M62.8206744,13.6255906 L54.1048259,16.8181102 C51.1302045,13.4377953 47.9267662,10.8503937 44.7233278,9.24370079 C54.2088336,8.97244094 57.8075014,10.7877953 62.8206744,13.6255906 Z M50.5477612,18.111811 L40.0845826,21.930315 L36.0698839,10.8503937 C36.5067164,10.7877953 42.1439359,9.61929134 50.5477612,18.111811 Z M32.8664456,12.0188976 L36.8811443,23.0988189 L26.3763626,26.938189 C26.4387673,26.0409449 27.0628137,15.5244094 32.8664456,12.0188976 Z M38.046031,26.3122047 L43.8912659,42.4 L29.4965948,47.6582677 C27.5412493,41.815748 26.4595688,35.9732283 26.313958,30.6106299 L38.046031,26.3122047 Z M25.2738806,16.2964567 C22.9441072,22.6397638 22.9857103,26.7086614 22.9441072,28.1901575 L14.1866556,31.3826772 C16.3916197,25.4984252 20.1775014,20.2401575 25.2738806,16.2964567 Z M12.9177612,35.4933071 L22.9857103,31.8208661 C23.2353289,37.2251969 24.3586125,43.0259843 26.313958,48.8267717 L13.5210061,53.4799213 C11.6488668,47.4704724 11.5240575,41.2732283 12.9177612,35.4933071 Z M14.6650912,56.7141732 L27.4580431,52.0401575 C29.7046103,57.8200787 32.5544223,62.9948819 35.7578607,67.2307087 L25.7731177,70.8822835 C20.9471587,67.2933071 17.0780708,62.4314961 14.6650912,56.7141732 Z M29.3301824,73.1984252 L38.046031,70.0059055 C41.0206523,73.3862205 44.2032891,75.973622 47.427529,77.580315 C46.9906965,77.6220472 38.6700774,78.2271654 29.3301824,73.1984252 Z M41.6030956,68.7330709 L52.0662742,64.9145669 L56.0809729,75.9944882 C55.664942,76.0362205 48.5508126,76.3700787 41.6030956,68.7330709 Z M59.2844113,74.8259843 L55.2697125,63.746063 L65.7744942,59.9066929 C65.7120896,60.803937 64.9840354,71.5708661 59.2844113,74.8259843 Z M54.1048259,60.5326772 L48.2595909,44.4448819 L62.654262,39.1866142 C64.6096075,45.0291339 65.691288,50.8716535 65.8368988,56.234252 L54.1048259,60.5326772 Z M66.8769762,70.5484252 C67.8130459,68.3574803 69.0611388,63.9964567 69.2067496,58.6547244 L77.9642012,55.4622047 C75.7592371,61.3464567 71.9733554,66.6047244 66.8769762,70.5484252 Z M79.2538972,51.3515748 L69.185948,55.0240157 C68.9363295,49.619685 67.8130459,43.8188976 65.8577004,38.0181102 L78.6506523,33.3440945 C80.50199,39.3744094 80.6267993,45.5716535 79.2538972,51.3515748 Z" id="Shape" fill="#DD0031"></path>
                        <path d="M48.0190557,89.5366142 C52.6161978,89.3488189 57.254943,88.4933071 61.8104819,86.8240157 L60.6455953,83.6106299 C38.5543515,91.6858268 14.0293266,80.2094488 5.9791276,58.0496063 C-2.05026985,35.8897638 9.3697799,11.2885827 31.4818252,3.21338583 L30.3169385,0 C6.43676165,8.72204724 -5.8985562,35.2846457 2.77568924,59.2181102 C9.39058144,77.4551181 26.3646445,88.9732283 44.6076019,89.5574803 L44.6076019,95.7129921 L29.2560596,95.7129921 L29.2560596,106 L63.370598,106 L63.370598,95.7338583 L48.0190557,95.7338583 L48.0190557,89.5366142 Z" id="Shape" fill="#001F5B"></path>
                    </g>
                </g>
            </g>
        </g>
    </g>
</svg>